<svg width="10" height="10" viewBox="0 0 10 10" fill="none" xmlns="http://www.w3.org/2000/svg">
<path d="M5 0.5C3.80653 0.5 2.66193 0.974106 1.81802 1.81802C0.974106 2.66193 0.5 3.80653 0.5 5C0.5 6.19347 0.974106 7.33807 1.81802 8.18198C2.66193 9.02589 3.80653 9.5 5 9.5C6.19347 9.5 7.33807 9.02589 8.18198 8.18198C9.02589 7.33807 9.5 6.19347 9.5 5C9.5 3.80653 9.02589 2.66193 8.18198 1.81802C7.33807 0.974106 6.19347 0.5 5 0.5ZM5 7.8125C4.25435 7.81161 3.5395 7.515 3.01225 6.98775C2.485 6.4605 2.18839 5.74565 2.1875 5C2.1875 3.44863 3.44975 2.1875 5 2.1875C6.55025 2.1875 7.8125 3.44863 7.8125 5C7.8125 6.55025 6.55025 7.8125 5 7.8125Z" fill="#F7F7F7"/>
</svg>
