<svg width="18" height="15" viewBox="0 0 18 15" fill="none" xmlns="http://www.w3.org/2000/svg">
<path d="M18 1.98141C17.3229 2.27672 16.6068 2.47299 15.8737 2.56416C16.6463 2.10587 17.2238 1.38017 17.4971 0.524534C16.7738 0.953537 15.9824 1.25564 15.1571 1.41778C14.6511 0.877535 13.9944 0.501943 13.2722 0.339803C12.55 0.177663 11.7957 0.23647 11.1073 0.508586C10.419 0.780701 9.82836 1.25355 9.41223 1.86569C8.9961 2.47783 8.77368 3.20097 8.77387 3.94116C8.77387 4.23366 8.79862 4.51491 8.85938 4.78266C7.39134 4.71068 5.95503 4.32967 4.64434 3.66454C3.33365 2.99941 2.17811 2.06513 1.25325 0.922784C0.779422 1.73487 0.632935 2.69703 0.843619 3.61334C1.0543 4.52964 1.60631 5.3312 2.38725 5.85478C1.8031 5.83912 1.23128 5.68324 0.72 5.40028V5.44078C0.720979 6.29289 1.0155 7.11865 1.55398 7.77905C2.09247 8.43945 2.84203 8.89417 3.6765 9.06666C3.36081 9.14986 3.03546 9.19072 2.709 9.18816C2.47454 9.19233 2.24031 9.17121 2.01038 9.12516C2.24881 9.85756 2.70843 10.498 3.32594 10.9584C3.94346 11.4188 4.68851 11.6764 5.4585 11.6958C4.15231 12.7173 2.54135 13.2715 0.883125 13.2697C0.5805 13.2697 0.29025 13.2562 0 13.219C1.68737 14.3064 3.65364 14.8816 5.661 14.875C12.4515 14.875 16.164 9.25003 16.164 4.37428C16.164 4.21116 16.1584 4.05366 16.1505 3.89728C16.8783 3.37639 17.5051 2.72715 18 1.98141Z" fill="#F7F7F7"/>
</svg>
